<svg viewBox="0 0 96 96" xmlns="http://www.w3.org/2000/svg" xmlns:xlink="http://www.w3.org/1999/xlink" id="Icons_InLoveFace_Outline" overflow="hidden"><style>
.MsftOfcThm_Accent6_lumMod_75_Fill_v2 {
 fill:#548235; 
}
</style>
<path d="M32 50.16C32 50.16 40 44 40 39.1 40 35.81 35 32.28 32 38.16 29 32.28 24 35.81 24 39.1 24 44 32 50.16 32 50.16Z" class="MsftOfcThm_Accent6_lumMod_75_Fill_v2" fill="#548235"/><path d="M67.46 61.41C66.5842 60.7406 65.3319 60.9061 64.66 61.78 57.5993 70.9811 44.4165 72.7162 35.2155 65.6555 33.7599 64.5385 32.457 63.2356 31.34 61.78 30.6662 60.9046 29.4104 60.7412 28.535 61.415 27.6596 62.0888 27.4962 63.3446 28.17 64.22 36.578 75.1718 52.2722 77.234 63.224 68.826 64.9537 67.4981 66.5021 65.9496 67.83 64.22 68.5042 63.3451 68.3415 62.0892 67.4665 61.415 67.4644 61.4133 67.4622 61.4117 67.46 61.41Z" class="MsftOfcThm_Accent6_lumMod_75_Fill_v2" fill="#548235"/><path d="M64 38.16C61 32.28 56 35.81 56 39.1 56 44.04 64 50.16 64 50.16 64 50.16 72 44 72 39.1 72 35.81 67 32.28 64 38.16Z" class="MsftOfcThm_Accent6_lumMod_75_Fill_v2" fill="#548235"/><path d="M48 14C66.7777 14 82 29.2223 82 48 82 66.7777 66.7777 82 48 82 29.2223 82 14 66.7777 14 48 14 29.2223 29.2223 14 48 14M48 10C27.0132 10 10 27.0132 10 48 10 68.9868 27.0132 86 48 86 68.9868 86 86 68.9868 86 48 86 27.0132 68.9868 10 48 10Z" class="MsftOfcThm_Accent6_lumMod_75_Fill_v2" fill="#548235"/></svg>